<mxfile host="app.diagrams.net" modified="2022-04-22T01:22:11.231Z" agent="5.0 (Macintosh; Intel Mac OS X 10_15_7) AppleWebKit/605.1.15 (KHTML, like Gecko) Version/14.1.2 Safari/605.1.15" etag="JE7FtyX1Z0ae5kFc0sbC" version="17.4.5" type="github">
  <diagram name="Page-1" id="edf60f1a-56cd-e834-aa8a-f176f3a09ee4">
    <mxGraphModel dx="830" dy="542" grid="1" gridSize="10" guides="1" tooltips="1" connect="1" arrows="1" fold="1" page="1" pageScale="1" pageWidth="1100" pageHeight="850" background="none" math="0" shadow="0">
      <root>
        <mxCell id="0" />
        <mxCell id="1" parent="0" />
        <mxCell id="_1DCvFW7gCbAwd9_55L3-3" value="" style="edgeStyle=orthogonalEdgeStyle;rounded=0;orthogonalLoop=1;jettySize=auto;html=1;" edge="1" parent="1" source="_1DCvFW7gCbAwd9_55L3-1" target="_1DCvFW7gCbAwd9_55L3-2">
          <mxGeometry relative="1" as="geometry" />
        </mxCell>
        <mxCell id="_1DCvFW7gCbAwd9_55L3-1" value="Start" style="ellipse;whiteSpace=wrap;html=1;" vertex="1" parent="1">
          <mxGeometry x="220" y="10" width="80" height="50" as="geometry" />
        </mxCell>
        <mxCell id="_1DCvFW7gCbAwd9_55L3-5" value="" style="edgeStyle=orthogonalEdgeStyle;rounded=0;orthogonalLoop=1;jettySize=auto;html=1;" edge="1" parent="1" source="_1DCvFW7gCbAwd9_55L3-2" target="_1DCvFW7gCbAwd9_55L3-4">
          <mxGeometry relative="1" as="geometry" />
        </mxCell>
        <mxCell id="_1DCvFW7gCbAwd9_55L3-2" value="&lt;p style=&quot;margin: 0px ; font-stretch: normal ; font-size: 13px ; line-height: normal ; font-family: &amp;#34;helvetica neue&amp;#34;&quot;&gt;&amp;lt;TicketSelection&amp;gt;&lt;/p&gt;&lt;p style=&quot;margin: 0px ; font-stretch: normal ; font-size: 13px ; line-height: normal ; font-family: &amp;#34;helvetica neue&amp;#34;&quot;&gt;Set Order.ItemizedCost, Order.TicketCost, Order.ParkingCost, Order.PhotoCost and Order.TotalCost to 0&lt;/p&gt;" style="rounded=0;whiteSpace=wrap;html=1;" vertex="1" parent="1">
          <mxGeometry x="174" y="140" width="170" height="130" as="geometry" />
        </mxCell>
        <mxCell id="_1DCvFW7gCbAwd9_55L3-7" value="" style="edgeStyle=orthogonalEdgeStyle;rounded=0;orthogonalLoop=1;jettySize=auto;html=1;" edge="1" parent="1" source="_1DCvFW7gCbAwd9_55L3-4" target="_1DCvFW7gCbAwd9_55L3-6">
          <mxGeometry relative="1" as="geometry" />
        </mxCell>
        <mxCell id="_1DCvFW7gCbAwd9_55L3-4" value="&lt;ol&gt;&lt;span style=&quot;font-family: &amp;#34;helvetica neue&amp;#34; ; font-size: 13px&quot;&gt;Display “Please enter the number of people attending or press [clear] to reset&quot;&lt;/span&gt;&lt;br&gt;&lt;/ol&gt;" style="whiteSpace=wrap;html=1;rounded=0;" vertex="1" parent="1">
          <mxGeometry x="440" y="175" width="480" height="75" as="geometry" />
        </mxCell>
        <mxCell id="_1DCvFW7gCbAwd9_55L3-9" value="" style="edgeStyle=orthogonalEdgeStyle;rounded=0;orthogonalLoop=1;jettySize=auto;html=1;" edge="1" parent="1" source="_1DCvFW7gCbAwd9_55L3-6" target="_1DCvFW7gCbAwd9_55L3-8">
          <mxGeometry relative="1" as="geometry" />
        </mxCell>
        <mxCell id="_1DCvFW7gCbAwd9_55L3-6" value="Get People.Count and set Value to Order.PeopleCount&amp;nbsp;" style="shape=parallelogram;perimeter=parallelogramPerimeter;whiteSpace=wrap;html=1;fixedSize=1;" vertex="1" parent="1">
          <mxGeometry x="540" y="290" width="230" height="80" as="geometry" />
        </mxCell>
        <mxCell id="_1DCvFW7gCbAwd9_55L3-11" value="" style="edgeStyle=orthogonalEdgeStyle;rounded=0;orthogonalLoop=1;jettySize=auto;html=1;" edge="1" parent="1" source="_1DCvFW7gCbAwd9_55L3-8" target="_1DCvFW7gCbAwd9_55L3-10">
          <mxGeometry relative="1" as="geometry" />
        </mxCell>
        <mxCell id="_1DCvFW7gCbAwd9_55L3-8" value="&lt;ol&gt;&lt;span style=&quot;font-family: &amp;#34;helvetica neue&amp;#34; ; font-size: 13px&quot;&gt;Display “Please select afternoon or evening for each individual and VIP or regular for Ticket Type”&lt;/span&gt;&lt;br&gt;&lt;br&gt;&lt;/ol&gt;" style="rounded=0;whiteSpace=wrap;html=1;" vertex="1" parent="1">
          <mxGeometry x="590" y="420" width="650" height="120" as="geometry" />
        </mxCell>
        <mxCell id="_1DCvFW7gCbAwd9_55L3-13" value="" style="edgeStyle=orthogonalEdgeStyle;rounded=0;orthogonalLoop=1;jettySize=auto;html=1;" edge="1" parent="1" source="_1DCvFW7gCbAwd9_55L3-10" target="_1DCvFW7gCbAwd9_55L3-12">
          <mxGeometry relative="1" as="geometry" />
        </mxCell>
        <mxCell id="_1DCvFW7gCbAwd9_55L3-10" value="&lt;ol&gt;&lt;span style=&quot;font-family: &amp;#34;helvetica neue&amp;#34; ; font-size: 13px&quot;&gt;For each individual store time of day to Order.TimeofDay, for each selection store VIP or regular to Order.TicketType,&lt;/span&gt;&lt;span style=&quot;font-family: &amp;#34;helvetica neue&amp;#34; ; font-size: 13px&quot;&gt;Let TicketCost = TicketCost + VIP surcharge (where applicable)&lt;/span&gt;&lt;/ol&gt;&lt;ol&gt;&lt;span id=&quot;docs-internal-guid-df1045e3-7fff-19db-4313-8162df6f2a68&quot;&gt;&lt;span style=&quot;font-size: 10pt ; font-family: &amp;#34;arial&amp;#34; ; vertical-align: baseline&quot;&gt;Let Afternoon 3-6pm $60 / person, VIP Afternoon 3-6pm $80 / person, Night 6:30pm-11:30pm $90 / person, VIP Night 6:30pm-11:30pm $120 / person&lt;/span&gt;&lt;/span&gt;&lt;br&gt;&lt;/ol&gt;" style="shape=parallelogram;perimeter=parallelogramPerimeter;whiteSpace=wrap;html=1;fixedSize=1;" vertex="1" parent="1">
          <mxGeometry x="855" y="570" width="655" height="110" as="geometry" />
        </mxCell>
        <mxCell id="_1DCvFW7gCbAwd9_55L3-16" value="" style="edgeStyle=orthogonalEdgeStyle;rounded=0;orthogonalLoop=1;jettySize=auto;html=1;" edge="1" parent="1" source="_1DCvFW7gCbAwd9_55L3-12" target="_1DCvFW7gCbAwd9_55L3-14">
          <mxGeometry relative="1" as="geometry" />
        </mxCell>
        <mxCell id="_1DCvFW7gCbAwd9_55L3-12" value="&lt;ol&gt;&lt;span style=&quot;font-family: &amp;#34;helvetica neue&amp;#34; ; font-size: 13px&quot;&gt;Store Total to Order.TotalTicketCost&lt;/span&gt;&lt;br&gt;Return update Order and display to User&lt;/ol&gt;" style="rounded=0;whiteSpace=wrap;html=1;" vertex="1" parent="1">
          <mxGeometry x="1100" y="710" width="290" height="80" as="geometry" />
        </mxCell>
        <mxCell id="_1DCvFW7gCbAwd9_55L3-18" value="" style="edgeStyle=orthogonalEdgeStyle;rounded=0;orthogonalLoop=1;jettySize=auto;html=1;" edge="1" parent="1" source="_1DCvFW7gCbAwd9_55L3-14" target="_1DCvFW7gCbAwd9_55L3-17">
          <mxGeometry relative="1" as="geometry" />
        </mxCell>
        <mxCell id="_1DCvFW7gCbAwd9_55L3-14" value="&amp;lt;PhotoBooths&amp;gt;&lt;br&gt;Set Selection.PhotoBooths&lt;br&gt;to 0&lt;br&gt;Display&amp;nbsp;&lt;span style=&quot;font-family: &amp;#34;helvetica neue&amp;#34; ; font-size: 13px&quot;&gt;“please enter the number of photos you would like or select 0 for none / null / nil”&lt;br&gt;Get Selection.PhotoBooths&lt;br&gt;&lt;br&gt;&lt;/span&gt;" style="whiteSpace=wrap;html=1;" vertex="1" parent="1">
          <mxGeometry x="1185" y="840" width="255" height="140" as="geometry" />
        </mxCell>
        <mxCell id="_1DCvFW7gCbAwd9_55L3-22" value="" style="edgeStyle=orthogonalEdgeStyle;rounded=0;orthogonalLoop=1;jettySize=auto;html=1;" edge="1" parent="1" source="_1DCvFW7gCbAwd9_55L3-17" target="_1DCvFW7gCbAwd9_55L3-21">
          <mxGeometry relative="1" as="geometry" />
        </mxCell>
        <mxCell id="_1DCvFW7gCbAwd9_55L3-17" value="PhotoBooths = 1-3 or more?&amp;nbsp;" style="rhombus;whiteSpace=wrap;html=1;" vertex="1" parent="1">
          <mxGeometry x="1212.5" y="1100" width="200" height="190" as="geometry" />
        </mxCell>
        <mxCell id="_1DCvFW7gCbAwd9_55L3-19" value="Yes" style="text;html=1;strokeColor=none;fillColor=none;align=center;verticalAlign=middle;whiteSpace=wrap;rounded=0;" vertex="1" parent="1">
          <mxGeometry x="1220" y="1260" width="60" height="30" as="geometry" />
        </mxCell>
        <mxCell id="_1DCvFW7gCbAwd9_55L3-20" value="No" style="text;html=1;strokeColor=none;fillColor=none;align=center;verticalAlign=middle;whiteSpace=wrap;rounded=0;" vertex="1" parent="1">
          <mxGeometry x="1400" y="1220" width="60" height="30" as="geometry" />
        </mxCell>
        <mxCell id="_1DCvFW7gCbAwd9_55L3-24" value="" style="edgeStyle=orthogonalEdgeStyle;rounded=0;orthogonalLoop=1;jettySize=auto;html=1;" edge="1" parent="1" source="_1DCvFW7gCbAwd9_55L3-21" target="_1DCvFW7gCbAwd9_55L3-23">
          <mxGeometry relative="1" as="geometry" />
        </mxCell>
        <mxCell id="_1DCvFW7gCbAwd9_55L3-21" value="If 1-2 then Selection.PhotoBooth * $10&lt;br&gt;If 3+ then Selection.PhotoBooth * $8" style="rounded=0;whiteSpace=wrap;html=1;" vertex="1" parent="1">
          <mxGeometry x="1252.5" y="1320" width="187.5" height="100" as="geometry" />
        </mxCell>
        <mxCell id="_1DCvFW7gCbAwd9_55L3-26" value="" style="edgeStyle=orthogonalEdgeStyle;rounded=0;orthogonalLoop=1;jettySize=auto;html=1;" edge="1" parent="1" source="_1DCvFW7gCbAwd9_55L3-23">
          <mxGeometry relative="1" as="geometry">
            <mxPoint x="1300" y="1690" as="targetPoint" />
          </mxGeometry>
        </mxCell>
        <mxCell id="_1DCvFW7gCbAwd9_55L3-23" value="&lt;ol&gt;&lt;span style=&quot;font-family: &amp;#34;helvetica neue&amp;#34; ; font-size: 13px&quot;&gt;Store resulting value to Total.PhotoBooths.ItemizedCost and display to User&lt;br&gt;&lt;/span&gt;&lt;br&gt;&lt;/ol&gt;" style="shape=parallelogram;perimeter=parallelogramPerimeter;whiteSpace=wrap;html=1;fixedSize=1;" vertex="1" parent="1">
          <mxGeometry x="1060" y="1480" width="520" height="150" as="geometry" />
        </mxCell>
        <mxCell id="_1DCvFW7gCbAwd9_55L3-34" value="" style="edgeStyle=orthogonalEdgeStyle;rounded=0;orthogonalLoop=1;jettySize=auto;html=1;" edge="1" parent="1" target="_1DCvFW7gCbAwd9_55L3-33">
          <mxGeometry relative="1" as="geometry">
            <mxPoint x="1312.5" y="1780" as="sourcePoint" />
          </mxGeometry>
        </mxCell>
        <mxCell id="_1DCvFW7gCbAwd9_55L3-31" value="&lt;span id=&quot;docs-internal-guid-6868de23-7fff-9fbb-f061-98f3bcfa0abd&quot;&gt;&lt;span style=&quot;font-size: 10pt ; font-family: &amp;#34;arial&amp;#34; ; vertical-align: baseline&quot;&gt;Function &amp;lt;ParkingSelection&amp;gt;&lt;br&gt;&lt;/span&gt;&lt;/span&gt;&lt;span id=&quot;docs-internal-guid-39f19ddf-7fff-e7c7-95ac-44a22bfcb654&quot;&gt;&lt;span style=&quot;font-size: 10pt ; font-family: &amp;#34;arial&amp;#34; ; vertical-align: baseline&quot;&gt;Set Selection.ParkingSelection to 0 &lt;br&gt;&lt;/span&gt;&lt;/span&gt;R&lt;span id=&quot;docs-internal-guid-ef83621e-7fff-0558-f010-31d07ca3937a&quot;&gt;&lt;span style=&quot;font-size: 10pt ; font-family: &amp;#34;arial&amp;#34; ; vertical-align: baseline&quot;&gt;ead Order.TimeOfDay for each selection&lt;/span&gt;&lt;/span&gt;" style="rounded=0;whiteSpace=wrap;html=1;" vertex="1" parent="1">
          <mxGeometry x="1220" y="1700" width="185" height="80" as="geometry" />
        </mxCell>
        <mxCell id="_1DCvFW7gCbAwd9_55L3-36" value="" style="edgeStyle=orthogonalEdgeStyle;rounded=0;orthogonalLoop=1;jettySize=auto;html=1;" edge="1" parent="1" source="_1DCvFW7gCbAwd9_55L3-33" target="_1DCvFW7gCbAwd9_55L3-35">
          <mxGeometry relative="1" as="geometry" />
        </mxCell>
        <mxCell id="_1DCvFW7gCbAwd9_55L3-33" value="&lt;span id=&quot;docs-internal-guid-24667115-7fff-785a-9b71-fa064ced1527&quot;&gt;&lt;span style=&quot;font-size: 10pt ; font-family: &amp;#34;arial&amp;#34; ; vertical-align: baseline&quot;&gt;For each ask User for Selection of Daytime, Evening or Daily Maximum Parking &amp;amp;&amp;amp; accept user inputs&lt;br&gt;&lt;/span&gt;&lt;/span&gt;" style="shape=parallelogram;perimeter=parallelogramPerimeter;whiteSpace=wrap;html=1;fixedSize=1;rounded=0;" vertex="1" parent="1">
          <mxGeometry x="1252.5" y="1870" width="252.5" height="130" as="geometry" />
        </mxCell>
        <mxCell id="_1DCvFW7gCbAwd9_55L3-38" value="" style="edgeStyle=orthogonalEdgeStyle;rounded=0;orthogonalLoop=1;jettySize=auto;html=1;" edge="1" parent="1" source="_1DCvFW7gCbAwd9_55L3-35" target="_1DCvFW7gCbAwd9_55L3-37">
          <mxGeometry relative="1" as="geometry" />
        </mxCell>
        <mxCell id="_1DCvFW7gCbAwd9_55L3-35" value="&lt;span id=&quot;docs-internal-guid-a074fd2f-7fff-cfea-ff80-9cc83cfec179&quot;&gt;&lt;span style=&quot;font-size: 10pt ; font-family: &amp;#34;arial&amp;#34; ; vertical-align: baseline&quot;&gt;Let Daytime (10am-6pm) / $12, Evening 6pm - 12am / $15, Daily maximum parking 10am-12pm / $20&lt;br&gt;&lt;span id=&quot;docs-internal-guid-4962531f-7fff-1d3a-73b3-990f57fba4f8&quot;&gt;&lt;span style=&quot;font-size: 10pt ; vertical-align: baseline&quot;&gt;Store selections to ParkingCost.Daytime &amp;amp;&amp;amp; ParkingCost.Evening &amp;amp;&amp;amp; Parking.DailyMax&lt;br&gt;&lt;/span&gt;&lt;/span&gt;&lt;span id=&quot;docs-internal-guid-9e7efc8b-7fff-3649-b5e4-c4e25712c4c3&quot;&gt;&lt;span style=&quot;font-size: 10pt ; vertical-align: baseline&quot;&gt;Add Selections and display TotalParkingCost to user&lt;br&gt;&lt;/span&gt;&lt;/span&gt;&lt;span id=&quot;docs-internal-guid-ea441968-7fff-6e25-9084-fa64acafee77&quot;&gt;&lt;span style=&quot;font-size: 10pt ; font-family: &amp;#34;arial&amp;#34; ; vertical-align: baseline&quot;&gt;Save result to Order.TotalParkingCost&lt;/span&gt;&lt;/span&gt;&lt;br&gt;&lt;/span&gt;&lt;/span&gt;" style="whiteSpace=wrap;html=1;rounded=0;" vertex="1" parent="1">
          <mxGeometry x="1318.75" y="2115" width="296.25" height="135" as="geometry" />
        </mxCell>
        <mxCell id="_1DCvFW7gCbAwd9_55L3-40" value="" style="edgeStyle=orthogonalEdgeStyle;rounded=0;orthogonalLoop=1;jettySize=auto;html=1;" edge="1" parent="1" target="_1DCvFW7gCbAwd9_55L3-39">
          <mxGeometry relative="1" as="geometry">
            <mxPoint x="1480" y="2580" as="sourcePoint" />
          </mxGeometry>
        </mxCell>
        <mxCell id="_1DCvFW7gCbAwd9_55L3-52" value="" style="edgeStyle=orthogonalEdgeStyle;rounded=0;orthogonalLoop=1;jettySize=auto;html=1;" edge="1" parent="1" source="_1DCvFW7gCbAwd9_55L3-37" target="_1DCvFW7gCbAwd9_55L3-51">
          <mxGeometry relative="1" as="geometry" />
        </mxCell>
        <mxCell id="_1DCvFW7gCbAwd9_55L3-37" value="Function &amp;lt;Discounts&amp;gt;&lt;br&gt;&lt;span id=&quot;docs-internal-guid-27722106-7fff-0527-ca6e-8cf6e7ffd12b&quot;&gt;&lt;span style=&quot;font-size: 10pt ; font-family: &amp;#34;arial&amp;#34; ; vertical-align: baseline&quot;&gt;Read Order.PeopleCount and Order.TotalCost&lt;/span&gt;&lt;/span&gt;" style="rounded=0;whiteSpace=wrap;html=1;" vertex="1" parent="1">
          <mxGeometry x="1405" y="2310" width="160" height="90" as="geometry" />
        </mxCell>
        <mxCell id="_1DCvFW7gCbAwd9_55L3-43" value="" style="edgeStyle=orthogonalEdgeStyle;rounded=0;orthogonalLoop=1;jettySize=auto;html=1;" edge="1" parent="1" target="_1DCvFW7gCbAwd9_55L3-42">
          <mxGeometry relative="1" as="geometry">
            <mxPoint x="1808" y="2867.5" as="sourcePoint" />
          </mxGeometry>
        </mxCell>
        <mxCell id="_1DCvFW7gCbAwd9_55L3-45" value="" style="edgeStyle=orthogonalEdgeStyle;rounded=0;orthogonalLoop=1;jettySize=auto;html=1;" edge="1" parent="1" target="_1DCvFW7gCbAwd9_55L3-44">
          <mxGeometry relative="1" as="geometry">
            <mxPoint x="1723" y="2930" as="sourcePoint" />
          </mxGeometry>
        </mxCell>
        <mxCell id="_1DCvFW7gCbAwd9_55L3-39" value="Order.PeopleCount &amp;lt; 3 ?" style="rhombus;whiteSpace=wrap;html=1;rounded=0;" vertex="1" parent="1">
          <mxGeometry x="1640" y="2800" width="170" height="125" as="geometry" />
        </mxCell>
        <mxCell id="_1DCvFW7gCbAwd9_55L3-41" value="Yes" style="text;html=1;strokeColor=none;fillColor=none;align=center;verticalAlign=middle;whiteSpace=wrap;rounded=0;" vertex="1" parent="1">
          <mxGeometry x="1788" y="2830" width="60" height="30" as="geometry" />
        </mxCell>
        <mxCell id="_1DCvFW7gCbAwd9_55L3-42" value="No discount applied" style="rounded=0;whiteSpace=wrap;html=1;" vertex="1" parent="1">
          <mxGeometry x="1858" y="2837.5" width="120" height="60" as="geometry" />
        </mxCell>
        <mxCell id="_1DCvFW7gCbAwd9_55L3-48" value="" style="edgeStyle=orthogonalEdgeStyle;rounded=0;orthogonalLoop=1;jettySize=auto;html=1;" edge="1" parent="1" source="_1DCvFW7gCbAwd9_55L3-44" target="_1DCvFW7gCbAwd9_55L3-47">
          <mxGeometry relative="1" as="geometry" />
        </mxCell>
        <mxCell id="_1DCvFW7gCbAwd9_55L3-44" value="&lt;span id=&quot;docs-internal-guid-6836648e-7fff-b4b8-58f7-2a3134cd6b49&quot;&gt;&lt;ol style=&quot;margin-top: 0px ; margin-bottom: 0px&quot;&gt;&lt;li dir=&quot;ltr&quot; style=&quot;list-style-type: decimal ; font-size: 10pt ; font-family: &amp;#34;arial&amp;#34; ; vertical-align: baseline&quot;&gt;&lt;p dir=&quot;ltr&quot; style=&quot;line-height: 1.38 ; margin-top: 12pt ; margin-bottom: 0pt&quot;&gt;&lt;span style=&quot;font-size: 10pt&quot;&gt;else if Order.PeopleCount = 3 then apply 5% discount to Order.TotalCost&lt;/span&gt;&lt;br&gt;&lt;/p&gt;&lt;p dir=&quot;ltr&quot; style=&quot;line-height: 1.38 ; margin-top: 12pt ; margin-bottom: 0pt&quot;&gt;&lt;span style=&quot;font-size: 10pt&quot;&gt;else if Order.PeopleCount = 4 then&amp;nbsp; apply 7% discount to Order.TotalCost&lt;/span&gt;&lt;/p&gt;&lt;p dir=&quot;ltr&quot; style=&quot;line-height: 1.38 ; margin-top: 12pt ; margin-bottom: 0pt&quot;&gt;&lt;span style=&quot;font-size: 10pt&quot;&gt;else if Order.PeopleCount = 5 then apply 10% discount to Order.TotalCost&lt;/span&gt;&lt;/p&gt;&lt;/li&gt;&lt;/ol&gt;&lt;/span&gt;" style="rounded=0;whiteSpace=wrap;html=1;" vertex="1" parent="1">
          <mxGeometry x="1663" y="3042.5" width="345" height="187.5" as="geometry" />
        </mxCell>
        <mxCell id="_1DCvFW7gCbAwd9_55L3-46" value="No" style="text;html=1;strokeColor=none;fillColor=none;align=center;verticalAlign=middle;whiteSpace=wrap;rounded=0;" vertex="1" parent="1">
          <mxGeometry x="1640" y="2930" width="60" height="30" as="geometry" />
        </mxCell>
        <mxCell id="_1DCvFW7gCbAwd9_55L3-50" value="" style="edgeStyle=orthogonalEdgeStyle;rounded=0;orthogonalLoop=1;jettySize=auto;html=1;" edge="1" parent="1" source="_1DCvFW7gCbAwd9_55L3-47" target="_1DCvFW7gCbAwd9_55L3-49">
          <mxGeometry relative="1" as="geometry" />
        </mxCell>
        <mxCell id="_1DCvFW7gCbAwd9_55L3-47" value="Function &amp;lt;PrintReceipt&amp;gt;&lt;br&gt;&lt;font face=&quot;arial&quot; size=&quot;2&quot;&gt;Print ItemizedCost &amp;amp;&amp;amp; TotalCost + Discount (if applicable)&lt;/font&gt;&lt;br&gt;&lt;span style=&quot;font-size: 10pt ; font-family: &amp;#34;arial&amp;#34;&quot;&gt;&lt;br&gt;&lt;/span&gt;" style="rounded=0;whiteSpace=wrap;html=1;" vertex="1" parent="1">
          <mxGeometry x="1778" y="3280" width="230" height="200" as="geometry" />
        </mxCell>
        <mxCell id="_1DCvFW7gCbAwd9_55L3-49" value="End" style="ellipse;whiteSpace=wrap;html=1;" vertex="1" parent="1">
          <mxGeometry x="1828" y="3540" width="120" height="80" as="geometry" />
        </mxCell>
        <mxCell id="_1DCvFW7gCbAwd9_55L3-51" value="&lt;span id=&quot;docs-internal-guid-976ac55d-7fff-8c68-0339-224b12aa87ba&quot;&gt;&lt;p dir=&quot;ltr&quot; style=&quot;line-height: 1.38 ; margin-top: 0pt ; margin-bottom: 0pt&quot;&gt;&lt;span style=&quot;font-size: 10pt ; font-family: &amp;#34;arial&amp;#34; ; vertical-align: baseline&quot;&gt;BlackBox External Function &amp;lt;PaymentProcess&amp;gt;&lt;/span&gt;&lt;/p&gt;&lt;p dir=&quot;ltr&quot; style=&quot;line-height: 1.38 ; margin-top: 0pt ; margin-bottom: 0pt&quot;&gt;&lt;span style=&quot;font-size: 10pt ; font-family: &amp;#34;arial&amp;#34; ; vertical-align: baseline&quot;&gt;&lt;/span&gt;&lt;/p&gt;&lt;ol&gt;&lt;span style=&quot;font-family: &amp;#34;helvetica neue&amp;#34; ; font-size: 13px&quot;&gt;Add Order.TotalTicketCost, Total.PhotoBooths.ItemizedCost, Order.TotalParkingCost and store to Order.TotalCost&lt;/span&gt;&lt;br&gt;&lt;span style=&quot;font-family: &amp;#34;helvetica neue&amp;#34; ; font-size: 13px&quot;&gt;Display TotalCost to User - Discount if Discount function appliesAccept UserInput of Payment (CreditCard / DebitCard, etc)&lt;br&gt;&lt;/span&gt;&lt;br&gt;&lt;/ol&gt;&lt;/span&gt;" style="whiteSpace=wrap;html=1;rounded=0;" vertex="1" parent="1">
          <mxGeometry x="1468" y="2510" width="530" height="190" as="geometry" />
        </mxCell>
      </root>
    </mxGraphModel>
  </diagram>
</mxfile>
